<?xml version="1.0" standalone="no"?>
<!DOCTYPE svg PUBLIC "-//W3C//DTD SVG 20010904//EN"
 "http://www.w3.org/TR/2001/REC-SVG-20010904/DTD/svg10.dtd">
<svg version="1.0" xmlns="http://www.w3.org/2000/svg"
 width="1500.000000pt" height="1094.000000pt" viewBox="0 0 1500.000000 1094.000000"
 preserveAspectRatio="xMidYMid meet">
<metadata>
Created by potrace 1.12, written by Peter Selinger 2001-2015
</metadata>
<g transform="translate(0.000000,1094.000000) scale(0.100000,-0.100000)"
fill="#000000" stroke="none">
<path d="M0 5470 l0 -5470 7500 0 7500 0 0 5470 0 5470 -7500 0 -7500 0 0
-5470z m8924 1426 c263 -61 467 -175 646 -362 148 -155 246 -323 309 -529 58
-191 66 -256 66 -530 -1 -221 -3 -262 -24 -355 -40 -187 -110 -367 -190 -493
l-31 -47 -139 111 -140 112 23 46 c99 195 144 470 125 762 -33 498 -273 843
-674 965 -84 26 -102 28 -270 28 -155 0 -191 -3 -260 -22 -294 -81 -516 -291
-625 -590 -59 -161 -74 -263 -74 -507 -1 -237 9 -314 61 -479 105 -334 370
-580 692 -640 96 -18 276 -21 367 -5 l62 11 146 -117 c80 -64 146 -119 146
-121 0 -6 -185 -62 -245 -74 -162 -31 -414 -29 -579 5 -451 93 -807 420 -956
876 -57 174 -74 299 -74 539 1 175 5 237 22 330 53 291 175 537 358 726 206
211 446 331 759 378 70 10 431 -3 499 -18z m-2104 -1416 l0 -1400 -175 0 -175
0 0 121 0 122 -78 -75 c-174 -166 -355 -229 -593 -207 -274 25 -476 162 -603
408 -84 164 -122 322 -132 551 -21 468 132 835 427 1026 270 175 659 160 919
-35 l55 -41 3 465 2 465 175 0 175 0 0 -1400z m2617 -928 l360 -287 -65 -75
c-36 -41 -84 -96 -106 -122 l-42 -48 -362 291 -363 290 103 119 c57 66 106
119 109 120 4 0 168 -129 366 -288z"/>
<path d="M5805 5857 c-185 -62 -298 -215 -357 -482 -9 -41 -13 -138 -12 -305
0 -233 1 -250 26 -342 66 -241 191 -375 382 -409 202 -35 421 72 586 286 l40
52 0 485 0 486 -60 56 c-72 66 -153 115 -252 152 -61 22 -93 27 -193 30 -82 3
-133 0 -160 -9z"/>
</g>
</svg>
